<svg height="512" viewBox="0 0 512 512" width="512" xmlns="http://www.w3.org/2000/svg" xmlns:xlink="http://www.w3.org/1999/xlink"><linearGradient id="New_Gradient_Swatch_7" gradientUnits="userSpaceOnUse" x1="84.087" x2="427.913" y1="587.739" y2="243.913"><stop offset="0" stop-color="#816a6a"/><stop offset="1" stop-color="#9d8b8b"/></linearGradient><linearGradient id="New_Gradient_Swatch_2" gradientUnits="userSpaceOnUse" x1="130.704" x2="381.296" y1="308.757" y2="58.165"><stop offset="0" stop-color="#e87676"/><stop offset="1" stop-color="#f2b3b3"/></linearGradient><linearGradient id="New_Gradient_Swatch_15" gradientUnits="userSpaceOnUse" x1="168.36" x2="343.64" y1="263.64" y2="88.36"><stop offset="0" stop-color="#fae1e1"/><stop offset="1" stop-color="#fff"/></linearGradient><linearGradient id="New_Gradient_Swatch_3" gradientUnits="userSpaceOnUse" x1="199.515" x2="312.485" y1="232.485" y2="119.515"><stop offset="0" stop-color="#f6d084"/><stop offset="1" stop-color="#fae4b9"/></linearGradient><g id="_09-Tracking" data-name="09-Tracking"><g id="Gradient"><path d="m4 324h504v183.652h-504z" fill="url(#New_Gradient_Swatch_7)"/><path d="m256 428a11.967 11.967 0 0 1 -8.027-3.081c-6.696-6.025-163.973-148.727-163.973-248.919 0-94.841 77.159-172 172-172s172 77.159 172 172c0 100.192-157.277 242.894-163.973 248.919a11.967 11.967 0 0 1 -8.027 3.081z" fill="url(#New_Gradient_Swatch_2)"/><circle cx="256" cy="176" fill="url(#New_Gradient_Swatch_15)" r="124"/><g fill="#ab9c9c"><path d="m336 404h-32a12 12 0 0 0 0 24h32a12 12 0 0 0 0-24z"/><path d="m416 404h-32a12 12 0 0 0 0 24h32a12 12 0 0 0 0-24z"/><path d="m496 404h-32a12 12 0 0 0 0 24h32a12 12 0 0 0 0-24z"/><path d="m208 404h-32a12 12 0 0 0 0 24h32a12 12 0 0 0 0-24z"/><path d="m128 404h-32a12 12 0 0 0 0 24h32a12 12 0 0 0 0-24z"/><path d="m48 404h-32a12 12 0 0 0 0 24h32a12 12 0 0 0 0-24z"/></g><rect fill="url(#New_Gradient_Swatch_3)" height="120" rx="12" width="120" x="196" y="116"/><path d="m256 156a12 12 0 0 0 12-12v-28h-24v28a12 12 0 0 0 12 12z" fill="#f5ca73"/><path d="m268 192a12 12 0 0 0 -12-12h-60v24h60a12 12 0 0 0 12-12z" fill="#f5ca73"/></g></g></svg>